<?xml version="1.0" encoding="UTF-8"?><svg id="b" xmlns="http://www.w3.org/2000/svg" viewBox="0 0 77.36 79.54"><path id="c" d="M38.67,77.54c5.49,0,9.94-4.46,9.95-9.95v-2.36h25.02c.95,0,1.73-.78,1.73-1.73,0-.26-.06-.52-.18-.76l-8.06-16.5v-15.83c0-11.56-7.04-21.96-17.78-26.26-3.51-1.26-7.2-1.98-10.93-2.15-3.55,.14-7.05,.86-10.36,2.14h-.03c-10.83,4.2-17.92,14.66-17.79,26.27v15.83L2.18,62.74c-.42,.86-.07,1.89,.79,2.31,.24,.12,.5,.18,.76,.18H28.73v2.36c0,5.49,4.46,9.94,9.95,9.95m0,2c-6.6,0-11.95-5.35-11.95-11.94v-.36H3.73C1.67,67.23,0,65.56,0,63.5c0-.57,.13-1.13,.38-1.64l7.86-16.08v-15.35c-.14-12.44,7.46-23.66,19.06-28.14,3.55-1.38,7.31-2.15,11.12-2.29,3.97,.17,7.9,.94,11.64,2.29,11.51,4.59,19.06,15.73,19.07,28.12v15.37l7.86,16.08c.91,1.85,.14,4.08-1.71,4.99-.51,.25-1.07,.38-1.64,.38h-23.02v.36c0,6.6-5.35,11.95-11.95,11.95h0Z"/></svg>