<?xml version="1.0" encoding="UTF-8"?><svg id="a" xmlns="http://www.w3.org/2000/svg" viewBox="0 0 82.69 81"><g id="b" transform="translate(1 0)"><path id="c" d="M80.24,78c.12,0,.24-.05,.33-.14,.09-.09,.13-.2,.13-.33-.3-9.98-2.53-19.81-6.57-28.94-1.96-4.43-4.32-8.67-7.06-12.66-2.73-3.97-5.81-7.67-9.21-11.08-3.4-3.41-7.11-6.49-11.08-9.22-3.99-2.74-8.22-5.11-12.65-7.06C25,4.53,15.18,2.3,5.2,2h-.01c-.25,0-.45,.21-.45,.46V12.73c.03,.31,.29,.55,.61,.55,34.75,1.51,62.55,29.36,64.02,64.11,0,.32,.24,.58,.55,.61h10.32m-27.22,0c.12,0,.24-.05,.32-.14,.08-.08,.12-.19,.11-.3-.61-12.63-5.9-24.57-14.85-33.5-8.9-8.95-20.84-14.25-33.45-14.84-.24,0-.42,.2-.42,.43v10.28c.04,.33,.31,.58,.64,.59,9.53,.64,18.5,4.73,25.24,11.49,6.77,6.77,10.85,15.78,11.48,25.33,0,.33,.26,.61,.59,.65h10.34m27.22,2h-10.32c-1.39-.03-2.51-1.14-2.55-2.53-1.34-33.74-28.36-60.8-62.1-62.19-1.39-.04-2.5-1.16-2.53-2.55V2.46C2.74,1.1,3.84,0,5.2,0c.02,0,.05,0,.07,0C25.6,.64,44.92,9.02,59.27,23.44c14.41,14.37,22.79,33.7,23.42,54.04,.04,1.36-1.03,2.49-2.39,2.53h-.07Zm-27.22,0h-10.34c-1.39-.04-2.51-1.13-2.58-2.52-.58-9.08-4.45-17.63-10.89-24.05-6.39-6.43-14.91-10.31-23.96-10.91-1.38-.08-2.48-1.2-2.51-2.59v-10.26c-.01-1.34,1.07-2.43,2.4-2.45,.04,0,.07,0,.11,0,13.11,.62,25.52,6.13,34.77,15.43,9.3,9.28,14.81,21.69,15.44,34.81,.05,1.34-.99,2.47-2.33,2.53-.03,0-.07,0-.1,0Z" fill="#46b843"/><path id="d" d="M11.44,58.13c6.32,0,11.44,5.12,11.44,11.44h0c0,6.32-5.12,11.44-11.44,11.44h0c-6.32,0-11.44-5.12-11.44-11.44H0C0,63.25,5.12,58.13,11.44,58.13h0Zm0,20.87c5.21,0,9.44-4.22,9.44-9.44s-4.22-9.44-9.44-9.44-9.44,4.22-9.44,9.44h0c0,5.21,4.23,9.43,9.44,9.44Z"/></g></svg>